PathFileType	4	(X/Y/Z)	./resultDataOpenSim/trcMotMarkerGrf/sub09/qtm-02-01.trc
DataRate	CameraRate	NumFrames	NumMarkers	Units	OrigDataRate	OrigDataStartFrame	OrigNumFrames
250.000000	250.000000	14	24	m	250.000000	122	486
Frame#	Time	L.Toe.Tip			R.Toe.Tip			L.Ankle.Lat			R.Ankle.Lat			L.Ankle.Med			R.Ankle.Med			L.Heel			R.Heel			L.Knee.Lat			R.Knee.Lat			L.Knee.Med			R.Knee.Med			L.Thigh.Upper			R.Thigh.Upper			L.ASIS			R.ASIS			V.Sacral			L.Acromium			R.Acromium			C7			L.Elbow			R.Elbow			L.Wrist.Lat			R.Wrist.Lat
		X1	Y1	Z1	X2	Y2	Z2	X3	Y3	Z3	X4	Y4	Z4	X5	Y5	Z5	X6	Y6	Z6	X7	Y7	Z7	X8	Y8	Z8	X9	Y9	Z9	X10	Y10	Z10	X11	Y11	Z11	X12	Y12	Z12	X13	Y13	Z13	X14	Y14	Z14	X15	Y15	Z15	X16	Y16	Z16	X17	Y17	Z17	X18	Y18	Z18	X19	Y19	Z19	X20	Y20	Z20	X21	Y21	Z21	X22	Y22	Z22	X23	Y23	Z23	X24	Y24	Z24

122	0.484	-0.19063996	0.080315039	0.0086548075	-0.63254696	0.038808245	0.092799858	-0.33944106	0.093484204	-0.043743512	-0.77976444	0.05680553	0.12061489	-0.32623442	0.11503297	0.052227974	-0.76611051	0.094638239	0.030303135	-0.40290145	0.043600416	-0.0014389613	-0.84765011	0.036551111	0.068741417	-0.38458564	0.51049815	-0.074140479	-0.64942009	0.49618858	0.19284691	-0.39171285	0.50335307	0.051648374	-0.66316395	0.48981633	0.063758892	-0.5710805	0.88792846	-0.11727189	-0.61663729	0.89997239	0.25244141	-0.50461476	0.97581574	-0.051376118	-0.50885338	0.98125974	0.18721	-0.67235863	1.0330759	0.061808598	-0.52375057	1.4262846	-0.10920583	-0.53605726	1.444367	0.21951453	-0.59334347	1.4848965	0.055462717	-0.68944168	1.0957324	-0.15357591	-0.650167	1.0983842	0.32429857	-0.56957498	0.86184859	-0.19294358	-0.46023416	0.8966272	0.3146132
123	0.488	-0.17321155	0.083487715	0.010867446	-0.63251972	0.038761672	0.092810979	-0.32202406	0.093266703	-0.042736037	-0.77968418	0.056942783	0.12047501	-0.30983585	0.11555741	0.053251206	-0.76587709	0.094663584	0.030156679	-0.38455916	0.042122837	-0.00069000585	-0.84762034	0.036699956	0.068508268	-0.37804362	0.50885035	-0.074439538	-0.64682244	0.49555708	0.19287903	-0.38538824	0.50148075	0.051684859	-0.66049259	0.48936031	0.0639122	-0.56488877	0.88637232	-0.11721263	-0.61136115	0.89898133	0.25231575	-0.49832563	0.97441901	-0.051249668	-0.50309466	0.98005706	0.18735309	-0.66712381	1.0319994	0.060449643	-0.51786447	1.4249307	-0.10928059	-0.53039788	1.4430674	0.21950207	-0.58753632	1.4835984	0.055376413	-0.68383982	1.0946654	-0.15376501	-0.64415712	1.0968907	0.32437215	-0.56508149	0.86032971	-0.19345969	-0.45349668	0.89585924	0.31436855
124	0.492	-0.1561413	0.086891421	0.013058834	-0.63250769	0.038690471	0.092786658	-0.30495617	0.0932592	-0.041742206	-0.77960851	0.057048717	0.12035676	-0.29371164	0.11621391	0.054285498	-0.76564622	0.094705661	0.030042424	-0.36639892	0.040861869	-0.00016177789	-0.84759864	0.03687388	0.068293996	-0.37144695	0.50712366	-0.074652669	-0.64408082	0.49488661	0.19289626	-0.37894367	0.49949822	0.051788109	-0.65769753	0.48884503	0.06405685	-0.55860696	0.88474364	-0.11714282	-0.60602459	0.89793615	0.25217034	-0.4920102	0.97295947	-0.051140836	-0.49729569	0.97880668	0.1874764	-0.66188776	1.0309713	0.058991658	-0.51196384	1.4235159	-0.10936229	-0.52470147	1.4416973	0.21947701	-0.58170865	1.4822392	0.055292282	-0.67819015	1.0935197	-0.15395228	-0.63813912	1.095337	0.32443257	-0.56055218	0.85873784	-0.19398913	-0.44677422	0.89502425	0.31412555
125	0.496	-0.1394797	0.090473428	0.01521965	-0.63249051	0.038610772	0.092767086	-0.28824667	0.093462861	-0.040775844	-0.77952642	0.057143707	0.12026259	-0.277893	0.11701208	0.055275457	-0.76541255	0.0947661	0.029953021	-0.34846856	0.039811138	0.00018289011	-0.84757929	0.03708667	0.06809849	-0.36485694	0.505372	-0.074781456	-0.64119638	0.49417644	0.19289804	-0.37239732	0.49746878	0.051979747	-0.65482589	0.4882694	0.064168393	-0.55225504	0.88303341	-0.11706497	-0.60062499	0.8968339	0.25200003	-0.48567597	0.97144277	-0.051053009	-0.49145791	0.97749317	0.18757897	-0.65635473	1.0297407	0.057993198	-0.5060619	1.4220395	-0.10944963	-0.5189663	1.4402678	0.21944502	-0.57587842	1.4808233	0.055207831	-0.67251342	1.0922991	-0.15414336	-0.63211658	1.0937258	0.32447838	-0.55600099	0.85708468	-0.1945318	-0.44005417	0.89411796	0.31388592
126	0.5	-0.12326845	0.094184353	0.017329748	-0.63245839	0.038535987	0.092771437	-0.27190065	0.093878421	-0.039849276	-0.77943874	0.057242585	0.12018392	-0.26244371	0.11795144	0.056148023	-0.76517048	0.094845837	0.029875118	-0.33087945	0.038953263	0.00050381982	-0.84755243	0.037349174	0.067919765	-0.3582872	0.50363276	-0.074810399	-0.63817	0.49342574	0.19288381	-0.36593071	0.49542258	0.052204206	-0.65190809	0.48764158	0.064241467	-0.54587744	0.88123623	-0.11698552	-0.59517577	0.89567118	0.25180255	-0.479329	0.96987229	-0.050993882	-0.4855867	0.97611358	0.18766683	-0.65045586	1.0281895	0.057608622	-0.500169	1.4205046	-0.10953992	-0.5132059	1.4387855	0.21941357	-0.57006654	1.4793701	0.055130571	-0.66683003	1.0910052	-0.15433736	-0.62608985	1.0920598	0.32450805	-0.55142117	0.85537855	-0.19508868	-0.43333962	0.89313634	0.31365411
127	0.504	-0.1075214	0.09798745	0.019366029	-0.63241649	0.038466303	0.0927891	-0.25592188	0.094504492	-0.038974207	-0.77935155	0.05735711	0.1201157	-0.2474169	0.11899534	0.056905886	-0.76492041	0.09493965	0.029788066	-0.31374892	0.038271424	0.00094025589	-0.84751243	0.037664682	0.067754273	-0.35174428	0.50191099	-0.074722841	-0.63500301	0.49263382	0.19285303	-0.35968718	0.49336088	0.052413196	-0.64892626	0.48697159	0.064281524	-0.53951433	0.87935652	-0.11689802	-0.58969048	0.89444282	0.25158533	-0.47297293	0.96825186	-0.050968434	-0.47968703	0.97468076	0.18774194	-0.64433823	1.0264021	0.057565874	-0.49428115	1.4189144	-0.10962944	-0.50744059	1.4372542	0.2193794	-0.56428038	1.4778969	0.055066882	-0.66112736	1.0896376	-0.15454099	-0.62005661	1.0903401	0.32451942	-0.54679192	0.8536198	-0.19565924	-0.42665136	0.89208034	0.31343172
128	0.508	-0.092239754	0.10183773	0.021302078	-0.63237142	0.038396329	0.092804578	-0.24031813	0.095322532	-0.038161298	-0.77927488	0.057501171	0.12006941	-0.23281487	0.12008415	0.057609663	-0.76467171	0.095031935	0.029667923	-0.29709811	0.037759957	0.0014235983	-0.84746161	0.038028519	0.067598932	-0.34524273	0.50019493	-0.074522682	-0.63169763	0.49180024	0.19280525	-0.35369648	0.49126544	0.052591454	-0.64583196	0.48626815	0.064291968	-0.53317936	0.87740495	-0.11680461	-0.58416643	0.89314943	0.2513563	-0.46661691	0.96658319	-0.050974898	-0.47376123	0.9732082	0.18780164	-0.63815369	1.0245195	0.057572902	-0.48838668	1.4172721	-0.10971489	-0.50166968	1.4356721	0.21933623	-0.55850167	1.4763944	0.055006014	-0.65534191	1.0881947	-0.15477642	-0.61401645	1.0885711	0.32450866	-0.54209316	0.85180338	-0.19623788	-0.42000839	0.89095455	0.31321344
129	0.512	-0.077426428	0.1056726	0.023108841	-0.63232466	0.038322326	0.092810843	-0.22510935	0.096278717	-0.037419993	-0.77922049	0.057685985	0.12006389	-0.21859843	0.1211829	0.058282252	-0.7644327	0.095106911	0.029502587	-0.28088494	0.037410633	0.0018044539	-0.84740503	0.038427629	0.067448621	-0.33877454	0.49847939	-0.074237161	-0.62825652	0.49092468	0.19274012	-0.3479156	0.48911772	0.052740427	-0.64259122	0.48553543	0.064269198	-0.52684895	0.87539178	-0.11675045	-0.57858925	0.89179975	0.25110722	-0.46027391	0.96486513	-0.051012495	-0.4678091	0.9716945	0.18784507	-0.63196543	1.0226377	0.057516012	-0.48248058	1.4155803	-0.10979663	-0.49587141	1.4340346	0.21928249	-0.55269715	1.4748396	0.054930265	-0.64942871	1.086675	-0.15505605	-0.60797481	1.0867621	0.32447368	-0.53732197	0.84992675	-0.19681848	-0.41342304	0.88976152	0.31299312
130	0.516	-0.063087798	0.10942827	0.024742625	-0.63227593	0.038244175	0.092806003	-0.21033201	0.097298373	-0.036753188	-0.77918243	0.057905419	0.12009113	-0.20472839	0.12228801	0.05889838	-0.76418962	0.095172055	0.029311648	-0.26510402	0.03719304	0.0020483424	-0.84734362	0.038847391	0.067293452	-0.33230362	0.49677321	-0.073899408	-0.62468201	0.49000679	0.19265724	-0.3422371	0.48692999	0.052877943	-0.63918944	0.48476939	0.064211429	-0.52049072	0.87332592	-0.11678432	-0.57295139	0.89040006	0.25082711	-0.45395237	0.96309826	-0.051087672	-0.4618288	0.97012645	0.18786925	-0.62576209	1.0207884	0.057389681	-0.4765689	1.4138416	-0.10988014	-0.49003034	1.4323452	0.21922243	-0.54684965	1.4732238	0.054836177	-0.64343293	1.0850818	-0.15535732	-0.60193794	1.0849197	0.32441416	-0.53249067	0.8479946	-0.19740143	-0.40689727	0.88850164	0.31276787
131	0.52	-0.049241353	0.11305232	0.026136111	-0.63222567	0.038165086	0.092788421	-0.19603715	0.09831925	-0.036152346	-0.77913482	0.05814221	0.12010914	-0.19121529	0.12338712	0.059436376	-0.76391021	0.095260599	0.02913815	-0.24980662	0.037057649	0.0022191716	-0.8472749	0.03928937	0.067124534	-0.32579896	0.49509838	-0.073532779	-0.62097603	0.48904604	0.19255615	-0.33656085	0.48474572	0.053004324	-0.63560702	0.48395834	0.06412449	-0.51409193	0.87121504	-0.11690793	-0.56726114	0.88894976	0.25052781	-0.44764752	0.96128835	-0.0512063	-0.45581655	0.96849829	0.18786601	-0.61947432	1.0189497	0.057161537	-0.47066036	1.4120611	-0.10997071	-0.48415096	1.4306175	0.21915912	-0.54096884	1.4715488	0.054730695	-0.63744095	1.0834264	-0.15563771	-0.59590296	1.0830414	0.32432772	-0.52760899	0.84601775	-0.19799316	-0.40040338	0.88718179	0.3125409
132	0.524	-0.035913309	0.11650397	0.027224231	-0.63217362	0.038089297	0.092755567	-0.18228071	0.099297492	-0.035597369	-0.77906454	0.058394617	0.12008718	-0.17814595	0.12442493	0.05988945	-0.76357452	0.095405048	0.029009828	-0.23505992	0.036956951	0.0024120979	-0.84719726	0.039775596	0.066937235	-0.31924529	0.49349361	-0.073157103	-0.61714028	0.48804189	0.1924364	-0.3308346	0.48262068	0.053098165	-0.63180868	0.48309272	0.064020726	-0.50765819	0.86906689	-0.11708204	-0.56153076	0.88745277	0.25023299	-0.44134334	0.95944433	-0.051364029	-0.44977401	0.9668204	0.18782921	-0.61300723	1.017053	0.056680532	-0.46475571	1.4102428	-0.11006863	-0.47824654	1.4288634	0.21908955	-0.53507361	1.4698129	0.054617058	-0.63150259	1.0817225	-0.15585946	-0.58986074	1.0811212	0.32421223	-0.52267636	0.84400648	-0.19859993	-0.39389432	0.88581418	0.31232472
133	0.528	-0.023123501	0.1197481	0.027978233	-0.63211784	0.038019448	0.09270479	-0.16911068	0.10019342	-0.035060054	-0.77897997	0.058675846	0.12002795	-0.16563339	0.12532531	0.060263244	-0.76318121	0.09562116	0.028918356	-0.22091751	0.036858351	0.0027297744	-0.84710869	0.040327441	0.066723749	-0.31259988	0.49200945	-0.072808685	-0.61317643	0.48699377	0.19229751	-0.32496523	0.4806241	0.053174772	-0.62775828	0.48217218	0.063914581	-0.50119744	0.86689161	-0.11725144	-0.55576281	0.88591962	0.2499514	-0.43503157	0.95757106	-0.051549515	-0.44371251	0.96510858	0.18776069	-0.60636987	1.0149891	0.055731599	-0.45884873	1.4083861	-0.11017165	-0.47232547	1.4270855	0.21901173	-0.52917737	1.4680225	0.054497915	-0.6256061	1.0799751	-0.15601875	-0.58380613	1.0791605	0.32406807	-0.51768641	0.84196438	-0.19922301	-0.38734765	0.88440402	0.31213031
134	0.532	-0.010885727	0.12274055	0.028404402	-0.63205546	0.037955505	0.09263392	-0.15656356	0.1009636	-0.03451227	-0.77888187	0.058990229	0.11993994	-0.15369988	0.12606996	0.060603602	-0.7627261	0.09591229	0.028831213	-0.2074244	0.03673557	0.0032595509	-0.84700556	0.040946676	0.066468671	-0.30577235	0.4906799	-0.072542226	-0.60908617	0.4859011	0.192139	-0.31882881	0.47882419	0.05327365	-0.62347114	0.48119657	0.06380916	-0.49468637	0.86469932	-0.11737633	-0.54995326	0.88435399	0.24968023	-0.4287195	0.95566484	-0.051751647	-0.43763412	0.96337207	0.18766992	-0.59995921	1.0127077	0.054394107	-0.45293427	1.4064934	-0.11027943	-0.4663917	1.4252811	0.2189281	-0.52328906	1.4662004	0.054385486	-0.61966507	1.0781706	-0.15618767	-0.57773866	1.0771686	0.32389556	-0.51263007	0.8398905	-0.19985826	-0.38077681	0.88294839	0.31195639
135	0.536	0.00078012719	0.12541687	0.028517027	-0.63198334	0.037894798	0.092542869	-0.14467087	0.10155786	-0.033934682	-0.77875231	0.059332489	0.11981516	-0.1422443	0.12671645	0.060993933	-0.76220024	0.096270461	0.028710957	-0.19463154	0.036556874	0.0040574288	-0.84688529	0.041625182	0.066157952	-0.29869613	0.48948677	-0.072392855	-0.60487121	0.48476332	0.19196038	-0.31237304	0.4772483	0.053400936	-0.619028	0.48016179	0.063683649	-0.48807887	0.8624964	-0.11744912	-0.54409812	0.88275108	0.24942237	-0.42241119	0.95371821	-0.051962401	-0.43152362	0.96160901	0.18756914	-0.59456084	1.010371	0.053365741	-0.44701076	1.4045707	-0.11039627	-0.4604449	1.4234483	0.21884011	-0.51741719	1.4643741	0.05429982	-0.61356549	1.0762888	-0.15647855	-0.57165762	1.0751556	0.32369658	-0.5074982	0.83778474	-0.20049942	-0.37420462	0.88144579	0.31179518
